<svg xmlns="http://www.w3.org/2000/svg" xmlns:xlink="http://www.w3.org/1999/xlink" width="100%" height="100%" version="1.1" viewBox="-1270 -1220 2540 2400"><style type="text/css">.color &gt; :nth-child(1) {fill: #6c0100; stroke: #6c0100; stroke-width: 6; stroke-linejoin:bevel;} /* Red */ .color &gt; :nth-child(2) {fill: #bb1e17; stroke: #bb1e17; stroke-width: 6; stroke-linejoin:bevel;} .color &gt; :nth-child(3) {fill: #40006c; stroke: #40006c; stroke-width: 6; stroke-linejoin:bevel;} /* Purple */ .color &gt; :nth-child(4) {fill: #7A00bc; stroke: #7A00bc; stroke-width: 6; stroke-linejoin:bevel;} .color &gt; :nth-child(5) {fill: #02356d; stroke: #02356d; stroke-width: 6; stroke-linejoin:bevel;} /* Blue */ .color &gt; :nth-child(6) {fill: #02579e; stroke: #02579e; stroke-width: 6; stroke-linejoin:bevel;} .color &gt; :nth-child(7) {fill: #136c00; stroke: #136c00; stroke-width: 6; stroke-linejoin:bevel;} /* Green */ .color &gt; :nth-child(8) {fill: #3bbc00; stroke: #3bbc00; stroke-width: 6; stroke-linejoin:bevel;} .color &gt; :nth-child(9) {fill: #c27400; stroke: #c27400; stroke-width: 6; stroke-linejoin:bevel;} /* Yellow */ .color &gt; :nth-child(10){fill: #f4d538; stroke: #f4d538; stroke-width: 6; stroke-linejoin:bevel;} .border &gt; * {fill: white; stroke: white; stroke-width: 8;} .m10 {display: none}</style><defs><polygon id="E10" points="0 0 224 -688 1052 -688 1256 -62 809 263 724 0"/><polygon id="M10a" points="32 -100 191 -588 980 -588 1138 -100"/><polygon id="M10b" points="1138 -100 777 163 691 -100"/><polygon id="E12" points="0 0 224 -688 1073 -688 1273 -74 809 263 724 0"/><polygon id="M12a" points="39 -120 185 -568 986 -568 1132 -120"/><polygon id="M12b" points="1132 -120 770 143 685 -120"/><polygon id="E14" points="0 0 224 -688 1094 -688 1290 -87 809 263 724 0"/><polygon id="M14a" points="45 -140 178 -548 993 -548 1125 -140"/><polygon id="M14b" points="1125 -140 764 123 678 -140"/><polygon id="E16" points="0 0 224 -688 1115 -688 1307 -99 809 263 724 0"/><polygon id="M16a" points="52 -160 172 -528 999 -528 1119 -160"/><polygon id="M16b" points="1119 -160 757 103 672 -160"/></defs><g class="logo m10"><g class="border"><use transform="rotate(0)" xlink:href="#E10"/><use transform="rotate(72)" xlink:href="#E10"/><use transform="rotate(144)" xlink:href="#E10"/><use transform="rotate(216)" xlink:href="#E10"/><use transform="rotate(288)" xlink:href="#E10"/></g><g class="color"><use transform="rotate(0)" xlink:href="#M10b"/><use transform="rotate(0)" xlink:href="#M10a"/><use transform="rotate(72)" xlink:href="#M10b"/><use transform="rotate(72)" xlink:href="#M10a"/><use transform="rotate(144)" xlink:href="#M10b"/><use transform="rotate(144)" xlink:href="#M10a"/><use transform="rotate(216)" xlink:href="#M10b"/><use transform="rotate(216)" xlink:href="#M10a"/><use transform="rotate(288)" xlink:href="#M10b"/><use transform="rotate(288)" xlink:href="#M10a"/></g></g><g class="logo m12"><g class="border"><use transform="rotate(0)" xlink:href="#E12"/><use transform="rotate(72)" xlink:href="#E12"/><use transform="rotate(144)" xlink:href="#E12"/><use transform="rotate(216)" xlink:href="#E12"/><use transform="rotate(288)" xlink:href="#E12"/></g><g class="color"><use transform="rotate(0)" xlink:href="#M12b"/><use transform="rotate(0)" xlink:href="#M12a"/><use transform="rotate(72)" xlink:href="#M12b"/><use transform="rotate(72)" xlink:href="#M12a"/><use transform="rotate(144)" xlink:href="#M12b"/><use transform="rotate(144)" xlink:href="#M12a"/><use transform="rotate(216)" xlink:href="#M12b"/><use transform="rotate(216)" xlink:href="#M12a"/><use transform="rotate(288)" xlink:href="#M12b"/><use transform="rotate(288)" xlink:href="#M12a"/></g></g><g class="logo m14"><g class="border"><use transform="rotate(0)" xlink:href="#E14"/><use transform="rotate(72)" xlink:href="#E14"/><use transform="rotate(144)" xlink:href="#E14"/><use transform="rotate(216)" xlink:href="#E14"/><use transform="rotate(288)" xlink:href="#E14"/></g><g class="color"><use transform="rotate(0)" xlink:href="#M14b"/><use transform="rotate(0)" xlink:href="#M14a"/><use transform="rotate(72)" xlink:href="#M14b"/><use transform="rotate(72)" xlink:href="#M14a"/><use transform="rotate(144)" xlink:href="#M14b"/><use transform="rotate(144)" xlink:href="#M14a"/><use transform="rotate(216)" xlink:href="#M14b"/><use transform="rotate(216)" xlink:href="#M14a"/><use transform="rotate(288)" xlink:href="#M14b"/><use transform="rotate(288)" xlink:href="#M14a"/></g></g><g class="logo m16"><g class="border" filter="url(#shadow)"><use transform="rotate(0)" xlink:href="#E16"/><use transform="rotate(72)" xlink:href="#E16"/><use transform="rotate(144)" xlink:href="#E16"/><use transform="rotate(216)" xlink:href="#E16"/><use transform="rotate(288)" xlink:href="#E16"/></g><g class="color"><use transform="rotate(0)" xlink:href="#M16b"/><use transform="rotate(0)" xlink:href="#M16a"/><use transform="rotate(72)" xlink:href="#M16b"/><use transform="rotate(72)" xlink:href="#M16a"/><use transform="rotate(144)" xlink:href="#M16b"/><use transform="rotate(144)" xlink:href="#M16a"/><use transform="rotate(216)" xlink:href="#M16b"/><use transform="rotate(216)" xlink:href="#M16a"/><use transform="rotate(288)" xlink:href="#M16b"/><use transform="rotate(288)" xlink:href="#M16a"/></g></g></svg>